<mxfile host="Electron" modified="2023-04-26T13:04:43.365Z" agent="Mozilla/5.0 (Macintosh; Intel Mac OS X 10_15_7) AppleWebKit/537.36 (KHTML, like Gecko) draw.io/21.2.1 Chrome/112.0.5615.87 Electron/24.1.2 Safari/537.36" version="21.2.1" etag="i-rOdJ7jBydbsj2vGgPk" type="device">
  <diagram id="Bc04I7TCDvSDuP7WDcWQ" name="Page-1">
    <mxGraphModel dx="586" dy="526" grid="1" gridSize="10" guides="1" tooltips="1" connect="1" arrows="1" fold="1" page="1" pageScale="1" pageWidth="827" pageHeight="1169" math="0" shadow="0">
      <root>
        <mxCell id="0" />
        <mxCell id="1" parent="0" />
        <mxCell id="t8yKJ0as-Rpzu8ex0gig-1" value="UI" style="shape=umlLifeline;perimeter=lifelinePerimeter;whiteSpace=wrap;html=1;container=0;dropTarget=0;collapsible=0;recursiveResize=0;outlineConnect=0;portConstraint=eastwest;newEdgeStyle={&quot;edgeStyle&quot;:&quot;elbowEdgeStyle&quot;,&quot;elbow&quot;:&quot;vertical&quot;,&quot;curved&quot;:0,&quot;rounded&quot;:0};" vertex="1" parent="1">
          <mxGeometry x="220" y="160" width="100" height="200" as="geometry" />
        </mxCell>
        <mxCell id="t8yKJ0as-Rpzu8ex0gig-2" value="Backend" style="shape=umlLifeline;perimeter=lifelinePerimeter;whiteSpace=wrap;html=1;container=0;dropTarget=0;collapsible=0;recursiveResize=0;outlineConnect=0;portConstraint=eastwest;newEdgeStyle={&quot;edgeStyle&quot;:&quot;elbowEdgeStyle&quot;,&quot;elbow&quot;:&quot;vertical&quot;,&quot;curved&quot;:0,&quot;rounded&quot;:0};" vertex="1" parent="1">
          <mxGeometry x="460" y="160" width="100" height="200" as="geometry" />
        </mxCell>
        <mxCell id="t8yKJ0as-Rpzu8ex0gig-3" value="" style="html=1;points=[];perimeter=orthogonalPerimeter;outlineConnect=0;targetShapes=umlLifeline;portConstraint=eastwest;newEdgeStyle={&quot;edgeStyle&quot;:&quot;elbowEdgeStyle&quot;,&quot;elbow&quot;:&quot;vertical&quot;,&quot;curved&quot;:0,&quot;rounded&quot;:0};" vertex="1" parent="t8yKJ0as-Rpzu8ex0gig-2">
          <mxGeometry x="45" y="105" width="10" height="80" as="geometry" />
        </mxCell>
        <mxCell id="t8yKJ0as-Rpzu8ex0gig-4" value="" style="html=1;points=[];perimeter=orthogonalPerimeter;outlineConnect=0;targetShapes=umlLifeline;portConstraint=eastwest;newEdgeStyle={&quot;edgeStyle&quot;:&quot;elbowEdgeStyle&quot;,&quot;elbow&quot;:&quot;vertical&quot;,&quot;curved&quot;:0,&quot;rounded&quot;:0};" vertex="1" parent="t8yKJ0as-Rpzu8ex0gig-2">
          <mxGeometry x="50" y="145" width="10" height="20" as="geometry" />
        </mxCell>
        <mxCell id="t8yKJ0as-Rpzu8ex0gig-5" value="validate &amp;amp;&lt;br&gt;transform to &lt;br&gt;service account &lt;br&gt;for internal use" style="html=1;align=left;spacingLeft=2;endArrow=block;rounded=0;edgeStyle=orthogonalEdgeStyle;curved=0;rounded=0;" edge="1" parent="t8yKJ0as-Rpzu8ex0gig-2" target="t8yKJ0as-Rpzu8ex0gig-4">
          <mxGeometry relative="1" as="geometry">
            <mxPoint x="55" y="125" as="sourcePoint" />
            <Array as="points">
              <mxPoint x="85" y="125" />
              <mxPoint x="85" y="155" />
            </Array>
          </mxGeometry>
        </mxCell>
        <mxCell id="t8yKJ0as-Rpzu8ex0gig-6" value="Cookies" style="shape=umlLifeline;perimeter=lifelinePerimeter;whiteSpace=wrap;html=1;container=0;dropTarget=0;collapsible=0;recursiveResize=0;outlineConnect=0;portConstraint=eastwest;newEdgeStyle={&quot;edgeStyle&quot;:&quot;elbowEdgeStyle&quot;,&quot;elbow&quot;:&quot;vertical&quot;,&quot;curved&quot;:0,&quot;rounded&quot;:0};" vertex="1" parent="1">
          <mxGeometry x="340" y="160" width="100" height="200" as="geometry" />
        </mxCell>
        <mxCell id="t8yKJ0as-Rpzu8ex0gig-8" value="" style="html=1;points=[];perimeter=orthogonalPerimeter;outlineConnect=0;targetShapes=umlLifeline;portConstraint=eastwest;newEdgeStyle={&quot;edgeStyle&quot;:&quot;elbowEdgeStyle&quot;,&quot;elbow&quot;:&quot;vertical&quot;,&quot;curved&quot;:0,&quot;rounded&quot;:0};" vertex="1" parent="t8yKJ0as-Rpzu8ex0gig-6">
          <mxGeometry x="45" y="50" width="10" height="40" as="geometry" />
        </mxCell>
        <mxCell id="t8yKJ0as-Rpzu8ex0gig-9" value="Identity Provider" style="shape=umlLifeline;perimeter=lifelinePerimeter;whiteSpace=wrap;html=1;container=0;dropTarget=0;collapsible=0;recursiveResize=0;outlineConnect=0;portConstraint=eastwest;newEdgeStyle={&quot;edgeStyle&quot;:&quot;elbowEdgeStyle&quot;,&quot;elbow&quot;:&quot;vertical&quot;,&quot;curved&quot;:0,&quot;rounded&quot;:0};" vertex="1" parent="1">
          <mxGeometry x="580" y="160" width="100" height="200" as="geometry" />
        </mxCell>
        <mxCell id="t8yKJ0as-Rpzu8ex0gig-11" value="call /token with user token" style="html=1;verticalAlign=bottom;endArrow=block;edgeStyle=elbowEdgeStyle;elbow=vertical;curved=0;rounded=0;" edge="1" parent="1" target="t8yKJ0as-Rpzu8ex0gig-3">
          <mxGeometry relative="1" as="geometry">
            <mxPoint x="270.07446808510645" y="275" as="sourcePoint" />
            <Array as="points">
              <mxPoint x="400" y="275" />
            </Array>
          </mxGeometry>
        </mxCell>
        <mxCell id="t8yKJ0as-Rpzu8ex0gig-12" value="return service account token" style="html=1;verticalAlign=bottom;endArrow=open;dashed=1;endSize=8;edgeStyle=elbowEdgeStyle;elbow=vertical;curved=0;rounded=0;entryX=0.501;entryY=0.8;entryDx=0;entryDy=0;entryPerimeter=0;" edge="1" parent="1">
          <mxGeometry x="-0.0015" relative="1" as="geometry">
            <mxPoint x="270.10000000000014" y="333" as="targetPoint" />
            <Array as="points">
              <mxPoint x="270" y="333" />
            </Array>
            <mxPoint x="505" y="333" as="sourcePoint" />
            <mxPoint as="offset" />
          </mxGeometry>
        </mxCell>
        <mxCell id="t8yKJ0as-Rpzu8ex0gig-16" value="read token" style="html=1;verticalAlign=bottom;endArrow=block;edgeStyle=elbowEdgeStyle;elbow=vertical;curved=0;rounded=0;" edge="1" parent="1" target="t8yKJ0as-Rpzu8ex0gig-8">
          <mxGeometry relative="1" as="geometry">
            <mxPoint x="270.19696969696975" y="220" as="sourcePoint" />
            <Array as="points">
              <mxPoint x="330" y="220" />
              <mxPoint x="350" y="210" />
            </Array>
          </mxGeometry>
        </mxCell>
        <mxCell id="t8yKJ0as-Rpzu8ex0gig-17" value="token" style="html=1;verticalAlign=bottom;endArrow=open;dashed=1;endSize=8;edgeStyle=elbowEdgeStyle;elbow=vertical;curved=0;rounded=0;" edge="1" parent="1" source="t8yKJ0as-Rpzu8ex0gig-8">
          <mxGeometry relative="1" as="geometry">
            <mxPoint x="270.19696969696975" y="240.0000000000001" as="targetPoint" />
            <Array as="points">
              <mxPoint x="353" y="240" />
            </Array>
          </mxGeometry>
        </mxCell>
      </root>
    </mxGraphModel>
  </diagram>
</mxfile>
